<svg width="620" height="620" viewBox="0 0 620 620" fill="none" xmlns="http://www.w3.org/2000/svg">
<path d="M306.453 407.65C415.82 407.65 504.479 320.321 504.479 212.596C504.479 104.871 415.82 17.5427 306.453 17.5427C197.086 17.5427 108.427 104.871 108.427 212.596C108.427 320.321 197.086 407.65 306.453 407.65Z" fill="#EBEBEB"/>
<path d="M425.232 143.564C440.197 137.35 447.214 120.362 440.904 105.622C434.595 90.8814 417.349 83.9697 402.384 90.1842C387.419 96.3987 380.402 113.386 386.711 128.126C393.02 142.867 410.267 149.779 425.232 143.564Z" fill="#E0E0E0"/>
<path d="M459.961 166.504C460.386 159.018 454.569 152.61 446.969 152.191C439.368 151.773 432.862 157.502 432.437 164.988C432.013 172.475 437.829 178.883 445.43 179.302C453.03 179.72 459.536 173.991 459.961 166.504Z" fill="#E0E0E0"/>
<path d="M157.558 160.399C159.077 154.037 155.072 147.667 148.613 146.172C142.154 144.676 135.688 148.621 134.169 154.983C132.651 161.344 136.656 167.714 143.114 169.21C149.573 170.705 156.04 166.761 157.558 160.399Z" fill="#E0E0E0"/>
<path d="M151.645 126.374C153.584 126.374 155.157 124.825 155.157 122.915C155.157 121.004 153.584 119.455 151.645 119.455C149.705 119.455 148.133 121.004 148.133 122.915C148.133 124.825 149.705 126.374 151.645 126.374Z" fill="#E0E0E0"/>
<path d="M189.441 33.6862C190.528 25.8615 179.323 19.4371 170.905 18.7644C166.891 18.4487 162.724 19.0527 158.92 17.7486C150.669 14.907 147.38 4.41924 139.408 1.08346C133.388 -1.41493 126.475 0.808917 120.636 3.69168C114.796 6.57445 109.054 10.226 102.518 10.6378C96.8598 10.9947 90.7137 8.92185 85.794 11.6536C82.1008 13.6853 80.2194 17.8722 76.7631 20.3431C73.3068 22.814 68.9864 23.2533 64.8612 23.5004C60.7359 23.7475 56.4992 23.7612 52.6806 25.4634C48.8619 27.1657 45.8098 31.078 46.5902 35.0727L189.441 33.6862Z" fill="#F5F5F5"/>
<path d="M607.541 90.7101C608.377 84.7112 599.778 79.7282 593.311 79.2614C590.231 79.0143 587.026 79.4811 584.113 78.479C577.786 76.31 575.249 68.252 569.076 65.685C564.463 63.7768 559.153 65.479 554.679 67.7029C550.205 69.9267 545.787 72.7134 540.742 73.0154C536.394 73.29 531.67 71.6427 527.865 73.7979C525.078 75.3628 523.545 78.575 520.897 80.4694C518.249 82.3638 515.001 82.7207 511.824 82.8992C508.646 83.0777 505.371 83.0914 502.486 84.3955C499.601 85.6996 497.204 88.7059 497.804 91.7809L607.541 90.7101Z" fill="#F5F5F5"/>
<path d="M96.1629 94.1008C96.8598 89.1726 89.7939 85.123 84.484 84.6974C81.9615 84.5053 79.3275 84.8759 76.9304 84.0523C71.7738 82.2814 69.6833 75.6648 64.6243 73.5645C60.8475 71.9858 56.4853 73.386 52.806 75.2118C49.1267 77.0375 45.5032 79.33 41.4058 79.5771C37.838 79.8105 33.9637 78.5064 30.8418 80.2223C28.5144 81.4989 27.288 84.1346 25.1417 85.7133C22.9116 87.0668 20.3324 87.7579 17.7135 87.7038C15.1038 87.6411 12.5048 88.0553 10.0483 88.9255C7.66518 89.9962 5.71405 92.4672 6.20184 94.993L96.1629 94.1008Z" fill="#F5F5F5"/>
<path d="M596.266 358.204C597.13 352.012 588.266 346.933 581.618 346.412C578.441 346.151 575.152 346.631 572.142 345.602C565.633 343.364 563.027 335.073 556.672 332.437C551.919 330.46 546.442 332.217 541.843 334.496C537.244 336.775 532.687 339.658 527.544 339.987C523.057 340.262 518.193 338.614 514.277 340.783C511.364 342.39 509.831 345.698 507.141 347.647C504.451 349.596 501.079 349.953 497.817 350.132C494.556 350.31 491.17 350.338 488.201 351.683C485.233 353.028 482.766 356.117 483.379 359.288L596.266 358.204Z" fill="#F5F5F5"/>
<path d="M109.431 457.563H139.631L173.079 555.906L150.237 457.563H156.76L186.138 555.906L170.64 457.563H214.304L252.24 608.689L226.373 457.563H231.697L263.612 608.689L267.333 619.245H125.918L109.431 457.563Z" fill="#EBEBEB"/>
<path d="M19.8319 457.563H50.0326L83.4806 555.906L60.6384 457.563H67.1608L96.5393 555.906L81.0417 457.563H124.705L162.641 608.689L136.774 457.563H142.098L173.999 608.689L177.734 619.245H56.4853L19.8319 457.563Z" fill="#EBEBEB"/>
<path d="M293.98 457.563H324.181L357.642 555.906L334.786 457.563H341.323L370.701 555.906L355.19 457.563H398.853L436.789 608.689L410.922 457.563H416.26L448.161 608.689L449.666 619.245L310.537 620L293.98 457.563Z" fill="#EBEBEB"/>
<path d="M434.071 458.702H464.258L497.72 557.06L474.878 458.702H481.4L510.778 557.06L495.281 458.702H538.944L576.88 609.828L551.014 458.702H556.337L588.238 609.828V618.861H450.391L434.071 458.702Z" fill="#EBEBEB"/>
<path d="M246.372 453.953C245.689 455.669 257.299 543.909 270.065 562.4C282.831 580.89 295.081 619.19 295.081 619.19H304.837C304.837 619.19 282.789 569.153 273.2 541.575C263.612 513.996 255.041 453.953 255.041 453.953H246.372Z" fill="#EBEBEB"/>
<path d="M0 476.905C0.0878862 476.998 0.167171 477.099 0.236923 477.207L0.891945 478.14L3.31692 481.751C4.39005 483.316 5.65828 485.237 7.05195 487.53C8.44562 489.822 10.1319 492.389 11.7904 495.327C13.4489 498.265 15.3582 501.436 17.2257 504.936C19.0932 508.437 21.0583 512.212 23.0791 516.193C26.9953 524.21 31.0369 533.16 34.7859 542.742C38.5349 552.323 41.587 561.644 44.1095 570.197C45.3081 574.493 46.4927 578.557 47.3986 582.414C48.3045 586.271 49.1825 589.854 49.8932 593.135C50.604 596.416 51.1615 599.422 51.6632 602.058C52.1649 604.694 52.5412 606.945 52.8199 608.812C53.0987 610.679 53.2938 612.065 53.461 613.095C53.461 613.562 53.5586 613.919 53.6004 614.221C53.616 614.348 53.616 614.477 53.6004 614.605C53.5528 614.481 53.52 614.352 53.5028 614.221C53.5028 613.932 53.3774 613.575 53.2798 613.122C53.0987 612.093 52.8339 610.665 52.5133 608.853C52.1928 607.041 51.7886 604.735 51.2311 602.127C50.6737 599.519 50.1441 596.512 49.3636 593.245C48.5832 589.978 47.8027 586.381 46.7854 582.551C45.768 578.721 44.653 574.658 43.4406 570.375C40.8901 561.864 37.8659 552.529 34.0891 542.989C30.3122 533.448 26.3263 524.484 22.452 516.467C20.4451 512.5 18.5776 508.698 16.6682 505.225C14.7589 501.752 13.0029 498.498 11.3166 495.615C9.63023 492.733 8.05539 490.124 6.67566 487.777C5.29593 485.43 4.08344 483.521 3.05213 481.943L0.738644 478.264L0.153304 477.289C8.51457e-07 477.028 0 476.919 0 476.905Z" fill="#E0E0E0"/>
<path d="M53.6283 597.583C53.608 597.46 53.608 597.335 53.6283 597.212C53.6283 596.924 53.5447 596.553 53.4889 596.1C53.3914 595.071 53.2381 593.643 53.0569 591.845C52.8757 590.047 52.6527 587.727 52.2904 585.105C51.928 582.483 51.6353 579.504 51.0918 576.223C50.841 574.576 50.5762 572.86 50.2974 571.062C50.0187 569.263 49.6285 567.424 49.294 565.502C48.639 561.645 47.7191 557.567 46.7993 553.271C44.8343 544.705 42.3535 535.356 39.2596 525.692C36.1657 516.028 32.6257 507.009 29.1973 498.896C27.4274 494.874 25.7828 491.017 24.0547 487.502C23.2046 485.745 22.4241 484.016 21.5879 482.396L19.2187 477.742C17.7414 474.75 16.2362 472.128 15.0377 469.808C13.8391 467.488 12.543 465.484 11.5675 463.905L9.42121 460.185L8.89162 459.21C8.76619 458.977 8.71044 458.867 8.72438 458.853C8.8072 458.952 8.88178 459.058 8.94737 459.169C9.10067 459.416 9.30972 459.718 9.54664 460.102L11.8183 463.768C12.7939 465.36 13.9785 467.309 15.2607 469.643C16.5428 471.977 18.048 474.557 19.595 477.536L22.0339 482.176C22.8701 483.796 23.6645 485.512 24.5285 487.283C26.2846 490.797 27.943 494.641 29.7548 498.663C33.2111 506.776 36.7231 515.836 39.8728 525.514C43.0225 535.192 45.4475 544.568 47.3847 553.161C48.2905 557.471 49.1825 561.562 49.8096 565.42C50.1441 567.355 50.5065 569.208 50.7713 571.007C51.0361 572.805 51.2869 574.535 51.5238 576.182C52.0395 579.463 52.3182 582.469 52.6248 585.091C52.9315 587.713 53.1405 589.992 53.2659 591.845C53.3914 593.698 53.5029 595.085 53.5725 596.114V597.226C53.607 597.342 53.6257 597.462 53.6283 597.583Z" fill="#E0E0E0"/>
<path d="M196.925 446.059C196.94 446.21 196.94 446.362 196.925 446.512C196.925 446.856 196.925 447.295 196.925 447.885C196.925 449.107 197.05 450.823 197.148 453.033C197.148 454.145 197.232 455.394 197.287 456.753C197.343 458.112 197.482 459.581 197.58 461.16C197.817 464.331 197.998 467.941 198.458 471.922C198.653 473.912 198.862 476.04 199.085 478.168C199.308 480.296 199.643 482.574 199.935 484.908C200.479 489.589 201.329 494.517 202.137 499.761C203.921 510.18 206.221 521.588 209.022 533.476C214.736 557.224 221.147 578.42 225.816 593.753C228.143 601.372 229.997 607.563 231.39 611.887C232.031 614.001 232.533 615.648 232.882 616.829C233.03 617.36 233.156 617.785 233.258 618.106C233.311 618.252 233.344 618.404 233.355 618.559C233.283 618.424 233.227 618.281 233.188 618.133L232.742 616.87C232.366 615.703 231.808 614.056 231.126 611.969C229.732 607.714 227.739 601.537 225.328 593.89C220.534 578.612 214.053 557.417 208.339 533.641C205.552 521.739 203.238 510.304 201.482 499.871C200.688 494.641 199.866 489.671 199.35 484.99C199.071 482.643 198.751 480.392 198.542 478.223C198.333 476.054 198.137 473.954 197.956 471.963C196.702 455.943 196.925 446.059 196.925 446.059Z" fill="#E0E0E0"/>
<path d="M298.328 610.693L298.035 610.377C297.84 610.116 297.561 609.787 297.241 609.361L294.189 605.449L292.001 602.552C291.234 601.509 290.426 600.329 289.548 599.079C287.82 596.554 285.743 593.753 283.736 590.459L280.489 585.366C279.374 583.581 278.329 581.659 277.186 579.71C274.859 575.825 272.685 571.473 270.329 566.998C260.428 547.253 253.181 526.32 248.769 504.731C247.836 499.747 246.874 495.011 246.316 490.536C246.01 488.299 245.634 486.157 245.424 484.071C245.215 481.984 245.006 479.952 244.811 478.085C244.365 474.283 244.268 470.81 244.073 467.776C244.073 466.252 243.905 464.839 243.864 463.534C243.822 462.23 243.864 461.05 243.864 459.965C243.864 457.865 243.864 456.204 243.864 455.037C243.864 454.502 243.864 454.076 243.864 453.747C243.841 453.606 243.841 453.462 243.864 453.321C243.882 453.462 243.882 453.605 243.864 453.747C243.864 454.076 243.864 454.502 243.864 455.037C243.864 456.204 243.961 457.865 244.031 459.965C244.031 461.036 244.031 462.23 244.128 463.521C244.226 464.811 244.296 466.266 244.393 467.749C244.63 470.782 244.756 474.242 245.243 478.044C245.452 479.939 245.661 481.929 245.884 484.016C246.107 486.102 246.512 488.23 246.818 490.454C247.403 494.915 248.393 499.624 249.341 504.593C253.81 526.112 261.036 546.985 270.845 566.71C273.186 571.213 275.333 575.537 277.632 579.422C278.761 581.371 279.792 583.293 280.893 585.077C281.994 586.862 283.067 588.564 284.085 590.198C286.064 593.492 288.099 596.306 289.799 598.846C290.663 600.109 291.443 601.289 292.21 602.36L294.342 605.243L297.269 609.238L298.021 610.281C298.136 610.409 298.238 610.547 298.328 610.693Z" fill="#E0E0E0"/>
<path d="M297.687 600.617C297.619 600.506 297.567 600.385 297.534 600.26L297.171 599.189L295.778 595.071C294.621 591.474 292.99 586.244 291.095 579.765C287.235 566.806 282.203 548.823 277.228 528.822C272.253 508.821 268.295 490.564 265.647 477.317C264.253 470.7 263.277 465.333 262.622 461.613C262.302 459.787 262.037 458.359 261.856 457.33L261.675 456.218C261.659 456.09 261.659 455.961 261.675 455.833C261.726 455.952 261.763 456.077 261.786 456.204C261.786 456.492 261.926 456.849 262.037 457.302C262.246 458.332 262.539 459.746 262.915 461.558C263.696 465.305 264.81 470.645 266.176 477.221C268.964 490.426 272.991 508.643 277.967 528.644C282.942 548.645 287.89 566.641 291.611 579.628C293.492 586.079 295.011 591.31 296.07 594.989L297.283 599.107C297.408 599.546 297.506 599.903 297.576 600.191C297.636 600.326 297.673 600.47 297.687 600.617Z" fill="#E0E0E0"/>
<path d="M592.531 440.637C592.544 440.788 592.544 440.939 592.531 441.09C592.531 441.433 592.531 441.859 592.405 442.463C592.28 443.671 592.099 445.373 591.862 447.542C591.374 451.948 590.719 458.345 589.966 466.252C589.214 474.159 588.447 483.563 587.737 494.037C587.026 504.511 586.454 516.001 586.05 528.136C585.646 540.271 585.535 551.775 585.535 562.262C585.535 572.75 585.73 582.208 585.967 590.143C586.204 598.077 586.441 604.502 586.664 608.936C586.747 611.105 586.817 612.821 586.859 614.042C586.859 614.591 586.859 615.031 586.859 615.415C586.874 615.57 586.874 615.727 586.859 615.882C586.844 615.731 586.844 615.579 586.859 615.429C586.859 615.086 586.789 614.646 586.747 614.056C586.664 612.848 586.552 611.132 586.399 608.963C586.106 604.529 585.785 598.105 585.479 590.17C585.172 582.236 584.963 572.778 584.894 562.29C584.824 551.802 584.977 540.23 585.353 528.122C585.73 516.014 586.385 504.483 587.096 494.009C587.806 483.535 588.67 474.118 589.493 466.211C590.315 458.304 591.04 451.921 591.611 447.528C591.904 445.359 592.127 443.657 592.294 442.449C592.364 441.9 592.433 441.474 592.475 441.076C592.48 440.928 592.499 440.781 592.531 440.637Z" fill="#E0E0E0"/>
<path d="M612.056 495.368C612.025 495.476 611.988 495.581 611.945 495.684C611.847 495.917 611.735 496.206 611.582 496.563C611.234 497.386 610.746 498.512 610.189 499.926C609.631 501.34 608.795 503.166 607.931 505.266C607.067 507.366 606.063 509.727 605.143 512.404C604.224 515.081 603.025 517.964 601.98 521.135C600.935 524.306 599.82 527.71 598.691 531.293C596.558 538.486 594.51 546.476 592.712 554.959C590.914 563.443 589.771 571.624 588.907 579.078C588.531 582.799 588.141 586.354 587.946 589.676C587.751 592.998 587.541 596.114 587.43 598.942C587.318 601.77 587.291 604.351 587.235 606.602C587.179 608.853 587.235 610.803 587.235 612.395C587.235 613.987 587.235 615.14 587.235 616.046V616.994C587.247 617.103 587.247 617.214 587.235 617.323C587.217 617.214 587.217 617.103 587.235 616.994C587.235 616.747 587.235 616.431 587.235 616.046C587.235 615.154 587.137 613.932 587.082 612.395C587.026 610.858 586.733 608.867 586.733 606.671C586.733 604.474 586.733 601.839 586.817 598.997C586.9 596.155 586.998 593.039 587.249 589.704C587.5 586.368 587.792 582.84 588.141 579.065C588.977 571.597 590.175 563.402 591.904 554.891C593.632 546.38 595.778 538.418 597.952 531.17C599.095 527.587 600.154 524.155 601.311 521.011C602.468 517.868 603.513 514.944 604.558 512.294C605.603 509.645 606.621 507.27 607.499 505.183C608.377 503.097 609.185 501.326 609.882 499.885C610.579 498.443 611.067 497.386 611.457 496.576C611.624 496.233 611.763 495.945 611.889 495.712C611.927 495.59 611.983 495.474 612.056 495.368Z" fill="#E0E0E0"/>
<path d="M448.482 582.51C448.286 582.51 443.228 553.573 437.193 517.813C431.158 482.053 426.462 453.019 426.615 452.923C426.768 452.827 431.869 481.86 437.904 517.634C443.938 553.408 448.76 582.483 448.482 582.51Z" fill="#E0E0E0"/>
<path d="M620 619.245C620 619.451 481.553 619.602 310.801 619.602C140.049 619.602 1.57483 619.451 1.57483 619.245C1.57483 619.039 139.994 618.888 310.801 618.888C481.609 618.888 620 619.025 620 619.245Z" fill="#720000"/>
<path d="M511.155 557.087C512.573 557.759 513.84 558.704 514.882 559.866C515.923 561.029 516.717 562.385 517.217 563.855C518.189 566.811 518.465 569.947 518.025 573.025C517.329 578.969 513.844 584.981 510.207 589.731C505.12 585.352 503.949 577.733 503.601 573.821C503.057 567.657 505.873 556.167 511.155 557.087Z" fill="#720000"/>
<path d="M516.116 599.546C515.771 597.845 515.888 596.085 516.456 594.444C517.024 592.802 518.022 591.337 519.349 590.198C520.691 589.084 522.245 588.244 523.92 587.728C525.595 587.211 527.358 587.029 529.105 587.191C529.917 587.18 530.723 587.344 531.464 587.671C532.206 587.998 532.865 588.481 533.398 589.086C533.796 589.726 534.012 590.46 534.024 591.211C534.036 591.962 533.844 592.702 533.467 593.355C532.693 594.648 531.588 595.718 530.262 596.457C525.858 599.203 521.091 601.015 516.102 599.546" fill="#720000"/>
<path d="M509.594 617.776C509.621 617.369 509.682 616.965 509.775 616.568C509.942 615.703 510.151 614.591 510.388 613.26C510.968 609.582 512.139 606.018 513.858 602.703C515.65 599.4 518.3 596.624 521.537 594.659C522.526 594.084 523.578 593.624 524.673 593.286C524.97 593.191 525.273 593.114 525.579 593.053C525.685 593.035 525.794 593.035 525.9 593.053C524.445 593.544 523.044 594.179 521.719 594.947C518.584 596.953 516.014 599.706 514.249 602.95C512.553 606.223 511.36 609.725 510.709 613.342C510.402 614.715 510.151 615.854 509.956 616.623C509.881 617.02 509.759 617.407 509.594 617.776Z" fill="#263238"/>
<path d="M509.789 566.024C509.81 566.202 509.81 566.381 509.789 566.559C509.789 566.962 509.817 567.47 509.873 568.083C509.942 569.456 510.026 571.35 510.109 573.739C510.263 578.502 510.388 585.091 510.36 592.367C510.332 599.642 510.137 606.231 509.942 610.995C509.845 613.37 509.747 615.305 509.663 616.637C509.663 617.255 509.58 617.762 509.552 618.161C509.524 618.559 509.552 618.696 509.482 618.696C509.467 618.518 509.467 618.339 509.482 618.161C509.482 617.762 509.482 617.255 509.482 616.623C509.482 615.25 509.552 613.329 509.622 610.981C509.733 606.218 509.873 599.629 509.9 592.353C509.928 585.077 509.9 578.502 509.775 573.739C509.775 571.391 509.775 569.483 509.691 568.097C509.691 567.465 509.691 566.957 509.691 566.559C509.702 566.377 509.735 566.198 509.789 566.024Z" fill="#263238"/>
<path d="M507.294 603.17C506.684 599.564 505.208 596.153 502.99 593.221C500.772 590.289 497.876 587.921 494.542 586.313C492.842 585.517 490.626 584.94 489.232 586.23C487.839 587.521 488.145 589.717 488.828 591.447C490.319 595.039 492.856 598.115 496.121 600.287C499.385 602.459 503.23 603.63 507.169 603.651" fill="#720000"/>
<path d="M495.392 591.955C495.77 592.072 496.135 592.228 496.479 592.422C496.895 592.614 497.3 592.83 497.692 593.067C498.224 593.356 498.74 593.672 499.239 594.014C499.857 594.441 500.452 594.899 501.023 595.387C501.681 595.92 502.309 596.488 502.904 597.089C504.277 598.462 505.483 599.986 506.5 601.633C507.49 603.291 508.285 605.055 508.869 606.89C509.112 607.699 509.312 608.519 509.468 609.348C509.612 610.064 509.714 610.788 509.775 611.516C509.859 612.175 509.775 612.779 509.859 613.315C509.883 613.772 509.883 614.23 509.859 614.688C509.86 615.076 509.814 615.463 509.719 615.841C509.622 615.841 509.803 614.193 509.496 611.558C509.42 610.843 509.304 610.132 509.148 609.43C508.983 608.619 508.773 607.817 508.521 607.028C507.934 605.226 507.144 603.494 506.165 601.866C505.166 600.251 503.993 598.746 502.667 597.377C502.04 596.759 501.441 596.169 500.828 595.675C500.214 595.181 499.643 594.741 499.113 594.302C496.884 592.724 495.351 592.037 495.392 591.955Z" fill="#263238"/>
<path d="M140.37 556.593C140.067 545.377 143.96 534.443 151.31 525.871C155.742 540.848 140.37 556.593 140.37 556.593Z" fill="#720000"/>
<path d="M157.875 547.244C168.198 542.509 179.927 541.674 190.835 544.897C178.668 554.836 157.875 547.244 157.875 547.244Z" fill="#720000"/>
<path d="M159.463 537.347C157.378 528.766 158.563 519.729 162.794 511.951C168.703 522.727 159.463 537.347 159.463 537.347Z" fill="#720000"/>
<path d="M88.6232 505.087C115.103 510.784 130.168 532.542 130.168 532.542C107.8 533.545 88.6232 505.087 88.6232 505.087Z" fill="#720000"/>
<path d="M130.893 513.749C128.259 486.034 154.362 453.349 154.362 453.349C151.798 488.024 130.893 513.749 130.893 513.749Z" fill="#720000"/>
<path d="M127.116 434.652C128.294 448.544 125.493 462.483 119.033 474.887C114.281 457.192 127.116 434.652 127.116 434.652Z" fill="#720000"/>
<path d="M119.089 491.566C98.3649 490.303 86.2121 470.604 86.2121 470.604C111.493 476.37 119.089 491.566 119.089 491.566Z" fill="#720000"/>
<path d="M78.5331 578.474C87.9347 572.139 99.3738 569.432 110.671 570.869C100.344 582.648 78.5331 578.474 78.5331 578.474Z" fill="#720000"/>
<path d="M132.398 585.201C130.062 591.892 125.396 597.553 119.228 601.18C119.688 591.776 132.398 585.201 132.398 585.201Z" fill="#720000"/>
<path d="M129.611 582.332C118.211 589.964 105.152 587.823 105.152 587.823C112.692 579.216 129.611 582.332 129.611 582.332Z" fill="#720000"/>
<path d="M141.861 619.245C141.84 619.109 141.84 618.97 141.861 618.833C141.861 618.504 141.861 618.106 141.792 617.625C141.792 616.486 141.652 614.88 141.555 612.972C141.457 611.063 141.373 608.483 141.178 605.614C140.983 602.745 140.844 599.478 140.523 595.881C140.008 588.66 139.13 580.094 137.903 570.609C136.677 561.123 134.977 550.745 132.858 539.914C128.594 518.252 123.242 498.951 119.019 485.1C116.887 478.237 115.103 472.595 113.821 468.751C113.208 466.884 112.734 465.401 112.427 464.317C112.288 463.85 112.162 463.466 112.065 463.15C112.019 463.022 111.99 462.888 111.981 462.752C112.057 462.867 112.118 462.992 112.162 463.123C112.274 463.438 112.427 463.809 112.594 464.262C112.998 465.333 113.528 466.802 114.197 468.641C115.591 472.457 117.472 478.017 119.688 484.922C125.41 502.929 130.123 521.233 133.806 539.749C135.924 550.594 137.555 561.013 138.795 570.499C140.036 579.984 140.788 588.605 141.22 595.826C141.499 599.436 141.61 602.69 141.736 605.586C141.861 608.483 141.945 610.94 141.959 612.958C141.973 614.976 141.959 616.486 141.959 617.625C141.959 618.106 141.959 618.504 141.959 618.833C141.948 618.975 141.915 619.114 141.861 619.245Z" fill="#263238"/>
<path d="M101.306 562.153C101.445 561.933 110.016 566.943 120.468 573.327C130.921 579.71 139.283 585.064 139.144 585.283C139.004 585.503 130.433 580.492 119.981 574.095C109.528 567.698 101.166 562.358 101.306 562.153Z" fill="#263238"/>
<path d="M138.14 563.457C138.488 562.954 138.895 562.493 139.353 562.084L142.906 558.391L154.767 546.393L166.641 534.396C168.034 533.023 169.233 531.76 170.236 530.758C170.647 530.282 171.115 529.858 171.63 529.495C171.322 530.04 170.942 530.543 170.501 530.991C169.721 531.925 168.564 533.229 167.114 534.835C164.202 538.033 160.146 542.344 155.436 547.025C150.725 551.706 146.516 555.879 143.366 558.844C141.805 560.34 140.509 561.521 139.617 562.331C139.18 562.772 138.683 563.15 138.14 563.457Z" fill="#263238"/>
<path d="M74.2267 550.168C74.2267 550.168 95.508 548.796 105.291 564.925C99.3044 565.019 93.3778 563.733 87.9844 561.171C82.591 558.609 77.8799 554.841 74.2267 550.168Z" fill="#720000"/>
<path d="M102.936 540.436C102.936 540.436 120.845 551.857 118.949 570.526C114.083 567.088 110.1 562.577 107.319 557.352C104.539 552.127 103.038 546.334 102.936 540.436Z" fill="#720000"/>
<path d="M192.939 506.309C192.939 506.309 187.169 530.113 165.609 535.288C167.559 528.695 171.045 522.642 175.79 517.611C180.535 512.58 186.407 508.71 192.939 506.309Z" fill="#720000"/>
<path d="M88.0518 423.491C88.0518 423.491 116.051 439.745 114.35 468.284C106.727 463.352 100.379 456.734 95.813 448.957C91.2471 441.18 88.5893 432.459 88.0518 423.491Z" fill="#720000"/>
<path d="M185.706 574.796C185.192 575.345 184.622 575.842 184.006 576.278C182.863 577.157 181.218 578.488 179.295 580.163C174.21 584.534 169.497 589.309 165.205 594.44C160.934 599.609 157.107 605.119 153.763 610.912C152.467 613.123 151.478 614.948 150.809 616.225C150.504 616.904 150.125 617.548 149.68 618.147C149.879 617.427 150.15 616.728 150.488 616.06C151.045 614.688 151.965 612.862 153.178 610.569C159.599 598.713 168.326 588.218 178.863 579.683C180.898 578.063 182.57 576.813 183.783 576.004C184.382 575.54 185.027 575.136 185.706 574.796Z" fill="#263238"/>
<path d="M162.85 593.3C160.369 582.353 162.065 570.889 167.616 561.095C171.421 580.877 162.85 593.3 162.85 593.3Z" fill="#720000"/>
<path d="M180.689 582.661C187.694 578.302 196.083 576.636 204.256 577.98C191.448 585.421 180.689 582.661 180.689 582.661Z" fill="#720000"/>
<path d="M336.152 145.936C330.689 131.989 316.725 115.831 295.471 119.853L292.837 120.252C292.837 120.252 277.242 124.37 273.814 130.41C270.385 136.45 268.95 149.354 269.354 164.509C269.758 179.664 297.088 219.336 297.088 219.336L315.902 200.187L339.72 169.808C339.72 169.808 341.615 159.896 336.152 145.936Z" fill="#263238"/>
<path d="M322.857 138.399L321.992 133.581L291.625 133.746C282.412 134.542 274.427 145.345 275.625 154.337C277.019 164.372 278.998 176.562 281.66 183.727C287.025 198.141 298.969 197.798 298.969 197.798L301.979 212.555L335.427 206.529L322.857 138.399Z" fill="#E8AA9A"/>
<path d="M283.555 163.726C283.65 164.226 283.94 164.668 284.361 164.961C284.783 165.253 285.304 165.372 285.813 165.291C286.063 165.265 286.305 165.188 286.524 165.067C286.743 164.946 286.936 164.782 287.089 164.586C287.243 164.39 287.355 164.165 287.418 163.926C287.481 163.686 287.495 163.436 287.457 163.191C287.366 162.693 287.079 162.25 286.66 161.958C286.24 161.665 285.721 161.546 285.214 161.626C284.964 161.655 284.723 161.732 284.504 161.854C284.285 161.976 284.092 162.139 283.938 162.334C283.784 162.53 283.67 162.753 283.605 162.992C283.539 163.232 283.522 163.481 283.555 163.726Z" fill="#263238"/>
<path d="M279.709 159.155C279.96 159.361 281.757 159.155 284.141 159.855C286.524 160.555 288.182 161.489 288.475 161.42C288.768 161.352 288.377 161.077 287.653 160.624C286.587 159.997 285.431 159.534 284.224 159.251C283.07 158.927 281.869 158.797 280.67 158.867C279.876 158.826 279.583 159.004 279.709 159.155Z" fill="#263238"/>
<path d="M304.502 159.787C304.597 160.286 304.886 160.729 305.308 161.021C305.73 161.313 306.251 161.432 306.76 161.352C307.01 161.325 307.252 161.249 307.471 161.127C307.69 161.006 307.882 160.843 308.036 160.646C308.19 160.45 308.301 160.226 308.365 159.986C308.428 159.746 308.441 159.496 308.404 159.251C308.312 158.753 308.026 158.311 307.606 158.018C307.187 157.725 306.668 157.606 306.16 157.686C305.911 157.715 305.669 157.793 305.45 157.914C305.231 158.036 305.039 158.199 304.885 158.395C304.73 158.59 304.617 158.814 304.551 159.053C304.486 159.292 304.469 159.541 304.502 159.787Z" fill="#263238"/>
<path d="M301.868 158.524C302.189 158.524 303.429 157.316 305.589 156.3C307.749 155.284 309.603 155.01 309.77 154.776C309.937 154.543 309.491 154.584 308.669 154.694C307.479 154.89 306.324 155.255 305.241 155.778C304.181 156.257 303.206 156.901 302.356 157.686C301.826 158.222 301.715 158.524 301.868 158.524Z" fill="#263238"/>
<path d="M296.098 173.185C294.937 173.041 293.762 173.041 292.6 173.185C292.057 173.185 291.527 173.185 291.374 172.883C291.2 172.356 291.2 171.789 291.374 171.263C291.625 169.89 291.889 168.517 292.154 166.966C293.213 160.857 293.868 155.888 293.617 155.847C293.367 155.806 292.307 160.72 291.248 166.829C290.997 168.325 290.76 169.767 290.537 171.126C290.328 171.824 290.378 172.573 290.677 173.24C290.792 173.41 290.945 173.552 291.123 173.657C291.302 173.761 291.501 173.825 291.708 173.844C292.014 173.874 292.322 173.874 292.628 173.844C293.809 173.773 294.975 173.552 296.098 173.185Z" fill="#263238"/>
<path d="M297.966 177.962C298.265 177.394 298.706 176.911 299.247 176.558C299.789 176.205 300.412 175.993 301.06 175.944C301.527 175.894 302.001 175.938 302.451 176.072C302.901 176.207 303.319 176.429 303.68 176.726C304.027 177.014 304.276 177.401 304.393 177.833C304.511 178.265 304.49 178.722 304.335 179.142C304.073 179.578 303.685 179.926 303.22 180.141C302.756 180.356 302.236 180.429 301.729 180.35C300.679 180.2 299.67 179.845 298.76 179.307C298.492 179.191 298.25 179.023 298.049 178.813C297.947 178.716 297.878 178.59 297.85 178.452C297.823 178.315 297.839 178.172 297.896 178.044" fill="#D37F6C"/>
<path d="M302.523 173.418C302.175 173.418 302.62 175.697 300.99 177.646C299.359 179.595 296.92 179.829 296.962 180.145C297.004 180.46 297.589 180.474 298.607 180.296C299.935 180.062 301.135 179.371 301.993 178.346C302.819 177.363 303.229 176.105 303.136 174.832C303.039 173.885 302.676 173.377 302.523 173.418Z" fill="#263238"/>
<path d="M298.495 148.558C298.816 149.079 300.851 148.42 303.345 148.228C305.84 148.036 307.958 148.324 308.181 147.761C308.279 147.501 307.833 147.034 306.927 146.649C305.734 146.179 304.444 145.995 303.164 146.114C301.884 146.207 300.646 146.603 299.554 147.267C298.718 147.789 298.356 148.311 298.495 148.558Z" fill="#263238"/>
<path d="M278.998 157.577C279.458 157.975 280.796 157.206 282.51 156.849C284.224 156.492 285.757 156.547 286.008 155.998C286.106 155.737 285.785 155.312 285.046 154.996C284.085 154.63 283.034 154.554 282.029 154.779C281.023 155.004 280.109 155.519 279.402 156.259C278.886 156.863 278.733 157.384 278.998 157.577Z" fill="#263238"/>
<path d="M282.008 128.296C282.008 128.296 272.406 137.631 273.367 151.303C273.953 159.54 276.308 163.466 276.308 163.466C276.433 156.012 280.21 147.885 315.958 154.09L327.442 160.295C327.442 160.295 334.73 146.142 327.442 137.164C320.153 128.186 311.414 122.805 301.519 123.011C291.624 123.217 282.008 128.296 282.008 128.296Z" fill="#263238"/>
<path d="M279.151 180.831C279.151 180.831 291.36 207.27 299.373 206.639C307.387 206.007 319.86 190.358 319.86 190.358L323.163 171.428C323.163 171.428 287.165 173.308 279.151 180.831Z" fill="#263238"/>
<path d="M328.459 135.571C321.574 128.598 308.627 117.163 294.454 119.977C298.312 119.803 302.134 120.778 305.421 122.777C308.708 124.775 311.307 127.703 312.878 131.179C318.745 143.533 314.801 201.285 314.801 201.285L335.497 194.503L339.678 169.259C339.678 169.259 335.344 142.545 328.459 135.571Z" fill="#263238"/>
<path d="M351.204 155.929C348.417 153.568 345.378 148.846 338.995 150.164C332.612 151.482 321.811 154.735 318.481 154.282C315.15 153.829 311.624 153.198 311.624 153.198L311.484 153.458C311.484 153.458 312.878 158.949 324.027 159.814C335.177 160.679 339.887 154.488 347.887 158.441C355.887 162.395 369.321 158.675 369.321 158.675C369.321 158.675 353.991 158.304 351.204 155.929Z" fill="#455A64"/>
<path d="M313.714 192.238C313.724 191.962 313.757 191.686 313.812 191.415L314.188 189.054C314.523 187.022 315.052 184.071 315.582 180.419C316.229 176.149 316.616 171.845 316.738 167.529C316.889 162.254 316.332 156.983 315.08 151.852C313.787 146.732 311.506 141.903 308.363 137.631C305.781 134.153 302.797 130.983 299.471 128.186C297.241 126.3 294.915 124.527 292.503 122.874L290.51 121.501C290.265 121.362 290.04 121.191 289.841 120.993C290.098 121.099 290.345 121.228 290.579 121.377C291.067 121.652 291.778 122.05 292.656 122.613C295.167 124.18 297.574 125.904 299.861 127.774C303.271 130.549 306.327 133.72 308.962 137.219C312.188 141.539 314.522 146.441 315.833 151.646C317.109 156.838 317.657 162.177 317.463 167.515C317.308 171.854 316.866 176.178 316.139 180.46C315.54 184.126 314.941 187.049 314.523 189.081C314.313 190.028 314.132 190.797 314.007 191.401C313.948 191.692 313.85 191.974 313.714 192.238Z" fill="#455A64"/>
<path d="M277.005 163.136C276.672 162.567 276.401 161.964 276.197 161.338C275.562 159.663 275.045 157.948 274.65 156.204C273.215 150.407 273.456 144.329 275.347 138.66C276.487 135.586 278.267 132.781 280.573 130.424C282.444 128.473 284.676 126.893 287.151 125.77C288.81 125.007 290.585 124.515 292.405 124.315C292.897 124.28 293.391 124.28 293.882 124.315C294.054 124.294 294.227 124.294 294.398 124.315C291.963 124.606 289.589 125.269 287.36 126.278C284.987 127.434 282.848 129.006 281.047 130.918C278.84 133.254 277.134 136.004 276.029 139.003C274.19 144.558 273.887 150.495 275.151 156.204C275.503 157.946 275.945 159.668 276.475 161.365C276.698 161.941 276.875 162.533 277.005 163.136Z" fill="#455A64"/>
<path d="M298.356 204.456C297.896 204.543 297.423 204.543 296.962 204.456C295.737 204.332 294.535 204.037 293.395 203.577C289.646 201.968 286.514 199.228 284.447 195.753C282.445 192.307 281.032 188.559 280.266 184.661C279.946 183.178 279.723 181.915 279.597 181.133C279.482 180.685 279.444 180.221 279.486 179.76C279.583 179.76 280.001 181.572 280.768 184.482C281.65 188.285 283.097 191.94 285.06 195.327C287.058 198.683 290.028 201.374 293.59 203.056C295.125 203.685 296.722 204.154 298.356 204.456Z" fill="#455A64"/>
<path d="M339.664 319.149C339.664 319.149 368.234 389.159 386.394 427.198C403.842 463.74 437.959 527.82 437.959 527.82C435.001 527.844 432.086 527.122 429.491 525.724C426.895 524.326 424.706 522.297 423.131 519.831C417.556 511.265 404.902 488.573 374.352 425.701C358.479 392.989 331.469 321.455 331.469 321.455L339.664 319.149Z" fill="#455A64"/>
<path d="M418.908 261.727C414.142 263.8 409.626 266.779 404.442 267.355C395.982 268.316 388.108 262.564 383.091 255.783C378.074 249.002 374.938 241.012 369.921 234.231C364.904 227.449 357.043 221.698 348.57 222.645L362.186 245.432C369.74 248.686 374.171 256.291 378.826 263.017C383.481 269.744 389.976 276.539 398.212 276.58C405.752 276.58 411.926 271.089 418.783 267.891C424.221 265.495 430.218 264.598 436.134 265.297C442.049 265.996 447.661 268.263 452.37 271.858L456.551 263.306C450.801 260.271 444.43 258.553 437.913 258.28C431.395 258.006 424.899 259.185 418.908 261.727Z" fill="#720000"/>
<path d="M215.642 280.685L229.579 283.65L232.519 282.469C232.519 282.469 238.191 278.859 238.526 274.892C238.86 270.924 236.575 265.818 236.575 265.818L230.652 258.721L215.6 256.071L215.642 280.685Z" fill="#E8AA9A"/>
<path d="M228.143 250.965C228.143 250.965 228.896 175.463 231.753 133.581C234.54 93.2771 242.609 21.3589 242.609 21.3589C239.845 22.3995 237.397 24.1186 235.497 26.3529C233.597 28.5872 232.308 31.2627 231.753 34.1255C229.76 44.0916 226.317 69.8169 221.105 139.278C218.401 175.45 219.711 251.747 219.711 251.747L228.143 250.965Z" fill="#E0E0E0"/>
<path d="M228.143 250.965L226.122 251.198L219.683 251.843H219.586V251.747C219.447 245.35 219.279 234.752 219.196 220.737C219.112 206.721 219.098 189.26 219.53 169.176C219.767 159.128 220.088 148.42 220.924 137.164C221.76 125.907 222.68 114.115 223.711 101.857C224.743 89.5982 225.899 76.8591 227.293 63.7905C228.018 57.2425 228.77 50.6259 229.732 43.9406C230.206 40.5911 230.721 37.2279 231.404 33.8647C231.773 32.1577 232.378 30.5087 233.202 28.964C234.061 27.4373 235.151 26.0486 236.435 24.8457C238.17 23.1782 240.233 21.8793 242.498 21.0295L243.041 20.8373V21.4001C239.515 53.1792 236.38 83.3933 233.955 110.848C231.53 138.303 230.512 163.013 229.774 183.837C229.035 204.662 228.784 221.396 228.547 232.982C228.436 238.761 228.338 243.25 228.282 246.325C228.282 247.835 228.282 248.988 228.282 249.784C228.282 250.58 228.282 250.965 228.282 250.965C228.282 250.965 228.282 250.553 228.282 249.784C228.282 249.015 228.282 247.835 228.282 246.325C228.282 243.25 228.352 238.761 228.408 232.982C228.561 221.396 228.812 204.607 229.411 183.823C230.011 163.04 230.805 138.262 233.383 110.793C235.962 83.3247 238.958 53.138 242.4 21.3315L242.874 21.7021C240.736 22.5096 238.786 23.7381 237.146 25.3124C235.903 26.4746 234.854 27.8227 234.038 29.3071C233.24 30.7889 232.659 32.374 232.31 34.0157C231.627 37.3377 231.112 40.7009 230.638 44.0367C229.69 50.7083 228.924 57.3249 228.199 63.8592C226.805 76.9277 225.634 89.6531 224.575 101.912C223.516 114.17 222.596 125.976 221.788 137.219C220.98 148.462 220.575 159.183 220.311 169.19C219.823 189.26 219.795 206.707 219.809 220.723C219.823 234.739 219.948 245.323 219.976 251.747L219.879 251.665L226.276 251.116L228.143 250.965Z" fill="#263238"/>
<path d="M228.157 242.44H219.628V250.965H228.157V242.44Z" fill="#720000"/>
<path d="M236.198 29.6229C236.214 29.801 236.214 29.9801 236.198 30.1582C236.198 30.5563 236.087 31.0917 236.003 31.7644L235.223 37.8868C234.874 40.5362 234.442 43.7896 234.01 47.496C233.578 51.2025 233.021 55.5815 232.617 60.3449C231.599 69.8718 230.54 81.2382 229.592 93.8674C228.645 106.497 227.795 120.389 227.126 135.05C225.774 164.276 225.035 190.728 224.38 209.947C224.046 219.556 223.767 227.23 223.586 232.625C223.46 235.274 223.377 237.347 223.307 238.788C223.307 239.475 223.307 239.996 223.223 240.394C223.238 240.577 223.238 240.761 223.223 240.944C223.208 240.761 223.208 240.577 223.223 240.394C223.223 239.996 223.223 239.461 223.223 238.788C223.223 237.333 223.293 235.274 223.349 232.625C223.488 227.23 223.683 219.487 223.92 209.933C224.408 190.783 224.993 164.303 226.331 135.077C227 120.471 227.892 106.565 228.854 93.8949C229.815 81.2244 230.93 69.9267 232.017 60.3175C232.519 55.5541 233.118 51.2574 233.592 47.4823C234.066 43.7073 234.526 40.4538 234.916 37.8044C235.306 35.155 235.627 33.1371 235.836 31.6957C235.948 31.0231 236.031 30.5014 236.087 30.1171C236.143 29.7327 236.198 29.6229 236.198 29.6229Z" fill="#263238"/>
<path d="M228.617 252.529H219.377V347.29H228.617V252.529Z" fill="#720000"/>
<path d="M223.99 281.096L221.941 287.823L224.088 294.096L226.248 287.507L223.99 281.096Z" fill="#FAFAFA"/>
<path d="M223.99 295.73L221.941 302.456L224.088 308.73L226.248 302.141L223.99 295.73Z" fill="#FAFAFA"/>
<path d="M223.99 310.83L221.941 317.556L224.088 323.83L226.248 317.227L223.99 310.83Z" fill="#FAFAFA"/>
<path d="M223.99 325.93L221.941 332.657L224.088 338.93L226.248 332.327L223.99 325.93Z" fill="#FAFAFA"/>
<path d="M223.99 341.03L221.941 347.29H226.248L223.99 341.03Z" fill="#FAFAFA"/>
<path d="M223.99 247.876L221.941 254.602L224.088 260.876L226.248 254.287L223.99 247.876Z" fill="#FAFAFA"/>
<path d="M237.286 250.964H211.029V252.529H237.286V250.964Z" fill="#263238"/>
<path d="M221.593 260.395C221.593 260.395 225.774 255.151 226.471 255.042C228.038 255.223 229.59 255.521 231.112 255.934C231.112 255.934 233.704 260.615 232.129 261.837C231.695 262.194 231.173 262.434 230.616 262.533C230.059 262.631 229.485 262.585 228.951 262.4C228.951 262.4 226.345 266.408 224.422 266.188C222.499 265.969 218.137 266.298 221.593 260.395Z" fill="#E8AA9A"/>
<path d="M213.036 254.369C213.036 254.369 209.872 255.165 209.872 257.499C209.874 258.908 210.143 260.305 210.666 261.617L212.241 263.402C212.241 263.402 210.848 264.074 211.461 267.19L212.59 268.865C212.59 268.865 210.889 271.871 211.461 272.983C211.869 273.733 212.401 274.411 213.036 274.988V279.106C213.036 279.888 215.642 280.671 215.642 280.671C215.642 280.671 228.993 280.341 229.579 278.776C230.164 277.211 230.206 275.77 229.579 275.207C228.951 274.644 231.655 274.988 231.376 272.077C231.195 270.238 228.728 269.332 228.728 269.332C228.728 269.332 232.352 265.982 231 265.214C229.943 264.67 228.819 264.264 227.655 264.006C227.655 264.006 216.659 254.149 213.036 254.369Z" fill="#E8AA9A"/>
<path d="M213.036 254.369C213.142 254.354 213.25 254.354 213.356 254.369C213.668 254.366 213.979 254.412 214.276 254.506C215.416 254.819 216.508 255.28 217.523 255.879C221.185 258.027 224.654 260.48 227.892 263.209C229.111 263.961 230.159 264.952 230.972 266.12C231.228 266.465 231.376 266.876 231.399 267.302C231.421 267.729 231.316 268.153 231.098 268.522C230.526 269.17 229.722 269.573 228.854 269.648V268.975C229.55 269.101 230.202 269.398 230.749 269.84C231.038 270.076 231.276 270.367 231.451 270.694C231.625 271.022 231.733 271.38 231.767 271.748C231.851 272.487 231.705 273.234 231.349 273.889C231.151 274.211 230.912 274.506 230.638 274.768L230.22 275.111L230.025 275.262C230.025 275.262 230.025 275.139 230.025 275.097C230.207 275.742 230.305 276.406 230.317 277.074C230.317 277.414 230.289 277.754 230.234 278.09C230.205 278.267 230.163 278.441 230.108 278.612L230.025 278.859C229.975 278.983 229.899 279.096 229.802 279.188C229.193 279.598 228.497 279.866 227.767 279.971C227.098 280.122 226.373 280.218 225.746 280.314C222.29 280.753 218.917 280.904 215.712 281H215.6C214.969 280.81 214.358 280.562 213.774 280.259C213.448 280.099 213.159 279.875 212.924 279.6C212.797 279.415 212.737 279.192 212.757 278.969V278.584C212.757 277.376 212.757 276.196 212.757 275.056L212.869 275.303C212.402 274.891 211.981 274.431 211.614 273.931C211.418 273.664 211.259 273.374 211.14 273.066C211.064 272.736 211.064 272.394 211.14 272.064C211.384 270.935 211.808 269.851 212.395 268.851V268.975L211.28 267.3C211.115 266.571 211.073 265.819 211.154 265.076C211.182 264.707 211.294 264.348 211.482 264.027C211.671 263.706 211.93 263.431 212.241 263.223L212.158 263.608L210.444 261.768C209.982 260.559 209.728 259.284 209.691 257.993C209.641 257.455 209.742 256.913 209.984 256.428C210.191 256.034 210.48 255.688 210.834 255.412C211.311 255.042 211.848 254.755 212.423 254.561C212.614 254.485 212.816 254.439 213.022 254.424C212.292 254.719 211.608 255.112 210.987 255.591C209.593 256.497 209.9 259.05 210.848 261.59L212.45 263.347L212.646 263.566L212.367 263.731C212.136 263.911 211.948 264.137 211.816 264.396C211.683 264.654 211.61 264.938 211.6 265.227C211.531 265.903 211.578 266.585 211.74 267.245V267.149L212.882 268.81L212.98 268.961L212.896 269.112C212.37 270.061 211.981 271.078 211.74 272.132C211.69 272.372 211.69 272.62 211.74 272.86C211.84 273.108 211.971 273.343 212.13 273.56C212.457 274.062 212.846 274.523 213.287 274.933L213.398 275.029V275.18C213.398 276.319 213.398 277.5 213.398 278.708C213.398 279.01 213.398 279.367 213.398 279.394C213.58 279.578 213.792 279.731 214.025 279.847C214.568 280.12 215.132 280.35 215.712 280.534H215.6C218.792 280.41 222.164 280.259 225.565 279.82C226.234 279.737 226.889 279.628 227.53 279.49C228.124 279.398 228.696 279.198 229.216 278.9V278.831L229.286 278.625C229.286 278.474 229.286 278.337 229.383 278.186C229.412 277.889 229.412 277.591 229.383 277.294C229.379 276.695 229.294 276.1 229.133 275.523C229.104 275.429 229.104 275.329 229.133 275.235L229.216 275.111L229.356 274.988L229.565 274.809C229.699 274.715 229.825 274.609 229.941 274.493C230.173 274.296 230.367 274.059 230.512 273.793C230.805 273.265 230.932 272.663 230.875 272.064C230.777 271.498 230.496 270.979 230.074 270.583C229.652 270.187 229.112 269.936 228.533 269.867L226.61 269.497L228.561 269.222C229.24 269.167 229.874 268.869 230.345 268.385C230.49 268.115 230.553 267.811 230.529 267.507C230.504 267.203 230.392 266.912 230.206 266.669C229.442 265.581 228.471 264.649 227.349 263.923C224.163 261.182 220.771 258.681 217.203 256.442C216.229 255.811 215.181 255.299 214.081 254.918C213.802 254.803 213.505 254.733 213.203 254.712L213.036 254.369Z" fill="#D37F6C"/>
<path d="M228.77 269.318C225.74 269.479 222.714 268.938 219.934 267.74C217.941 266.979 216.035 266.013 214.248 264.857C213.477 264.43 212.78 263.883 212.186 263.237C212.311 263.045 215.614 265.337 220.185 267.067C222.989 268.018 225.858 268.77 228.77 269.318Z" fill="#D37F6C"/>
<path d="M229.62 274.974C228.724 275.271 227.77 275.361 226.833 275.235C224.587 275.074 222.383 274.55 220.311 273.683C218.241 272.844 216.284 271.756 214.485 270.444C213.694 269.959 213 269.335 212.437 268.604C215.045 270.301 217.78 271.802 220.617 273.093C222.628 273.929 224.741 274.501 226.903 274.795C228.561 274.946 229.606 274.85 229.62 274.974Z" fill="#D37F6C"/>
<path d="M228.77 279.188C226.01 279.653 223.178 279.464 220.506 278.639C218.59 278.166 216.751 277.432 215.043 276.456C214.302 276.102 213.646 275.597 213.119 274.974C213.871 275.265 214.598 275.614 215.293 276.017C217.03 276.83 218.84 277.478 220.701 277.953C223.361 278.536 226.056 278.949 228.77 279.188Z" fill="#D37F6C"/>
<path d="M231.418 258.364C231.516 258.364 231.558 258.748 231.418 259.338C231.181 260.079 230.803 260.769 230.303 261.37C229.833 261.976 229.296 262.529 228.701 263.017C228.171 263.402 227.697 263.347 227.711 263.251C227.725 263.154 228.018 263.031 228.352 262.633C228.965 261.892 229.356 261.397 229.746 260.931C230.833 259.627 231.237 258.35 231.418 258.364Z" fill="#D37F6C"/>
<path d="M245.926 316.582L244.421 300.287L232.185 302.223C232.185 302.223 222.819 291.076 221.495 291.159C221.119 291.159 216.994 291.282 216.367 292.765C216.212 293.049 216.117 293.362 216.088 293.684C215.21 293.89 212.464 294.947 212.353 299.93C212.353 299.93 207.712 301.646 208.841 305.6L209.343 307.577C208.826 308.442 208.499 309.405 208.384 310.403C208.269 311.401 208.368 312.412 208.674 313.37C209.719 316.582 224.464 321.963 228.338 322.21C232.213 322.457 246.205 318.092 246.205 318.092L245.926 316.582Z" fill="#E8AA9A"/>
<path d="M236.617 265.818C236.463 264.912 248.574 255.591 257.368 256.208L258.943 249.757L276.545 229.989C276.557 225.603 277.77 221.301 280.057 217.538C283.764 212.047 287.722 208.972 287.722 207.325C287.722 205.678 288.726 246.201 288.726 246.201C288.726 246.201 271.179 283.869 271.068 284.967C270.956 286.066 245.508 298.86 245.508 298.86C245.508 298.86 230.526 293.533 229.62 288.866V285.311C229.62 285.311 238.874 278.927 236.617 265.818Z" fill="#263238"/>
<path d="M365.057 226.694C364.374 226.077 356.221 192.266 334.159 191.236L287.722 205.732C287.722 205.732 277.409 237.045 275.569 255.673C273.925 272.256 265.465 301.77 270.343 326.205L340.347 321.647C340.347 321.647 355.956 318.819 360.165 303.033C364.374 287.246 365.754 227.298 365.057 226.694Z" fill="#263238"/>
<path d="M271.068 285.022C271.034 284.804 271.034 284.582 271.068 284.363L271.277 282.51C271.472 280.918 271.793 278.598 272.239 275.743C273.103 270.018 274.413 262.139 276.001 253.463C277.59 244.787 279.165 236.99 280.433 231.307C281.061 228.479 281.604 226.214 282.008 224.635C282.203 223.935 282.371 223.331 282.496 222.837C282.546 222.628 282.621 222.425 282.719 222.233C282.753 222.447 282.753 222.664 282.719 222.878C282.621 223.372 282.496 223.976 282.357 224.704C282.008 226.392 281.562 228.657 280.963 231.417C279.834 237.072 278.343 244.924 276.782 253.6C275.221 262.276 273.841 270.073 272.81 275.811C272.322 278.557 271.918 280.849 271.625 282.551L271.277 284.391C271.24 284.611 271.17 284.824 271.068 285.022Z" fill="#455A64"/>
<path d="M274.552 344.476C274.315 342.65 271.012 324.461 271.082 326.232L348.333 318.531V338.807L274.552 344.476Z" fill="#455A64"/>
<path d="M275.737 343.364C280.475 343.364 296.098 503.632 319.986 518.829L338.396 547.752L373.238 550.21L369.753 539.914C369.753 539.914 380.206 542.852 376.722 535.988C373.238 529.124 361.294 504.113 361.294 504.113C361.294 504.113 369.753 503.138 369.266 495.78C368.778 488.422 358.813 484.016 357.322 477.152C357.322 477.152 350.354 440.39 353.838 429.6C357.322 418.81 358.311 397.739 357.81 387.923C357.308 378.108 357.81 347.524 348.319 338.738C345.35 335.992 275.737 343.364 275.737 343.364Z" fill="#263238"/>
<path d="M275.82 343.776C271.008 358.038 268.653 372.992 268.852 388.02C269.312 411.507 275.82 491.662 280.531 498.114C285.242 504.566 300.642 552.914 300.642 552.914H324.487L333.379 515.616L320.724 341.497L275.82 343.776Z" fill="#263238"/>
<path d="M290.621 378.246C290.636 378.392 290.636 378.539 290.621 378.685C290.621 379.014 290.621 379.426 290.719 379.961C290.788 381.128 290.9 382.707 291.039 384.862C291.276 389.173 291.625 395.323 292.043 402.914C292.851 418.192 293.952 439.223 295.165 462.45C295.453 468.091 296.17 473.703 297.311 479.239C298.469 484.386 300.252 489.377 302.621 494.105C307.08 503.165 312.655 510.468 317.212 516.618C321.77 522.768 325.574 527.751 327.902 531.307C329.114 533.078 330.02 534.478 330.605 535.425C330.884 535.878 331.107 536.249 331.288 536.523C331.368 536.644 331.434 536.773 331.483 536.908C331.385 536.801 331.297 536.686 331.219 536.564C331.038 536.29 330.787 535.947 330.48 535.507C329.853 534.574 328.919 533.201 327.693 531.458C325.226 527.944 321.491 523.002 316.808 516.907C311.171 509.875 306.225 502.332 302.035 494.38C299.645 489.618 297.848 484.59 296.684 479.403C295.525 473.842 294.794 468.202 294.496 462.532C293.255 439.278 292.308 418.22 291.597 402.969C291.262 395.391 290.997 389.241 290.802 384.917C290.802 382.817 290.677 381.183 290.635 380.003C290.635 379.481 290.635 379.055 290.635 378.726C290.602 378.568 290.597 378.405 290.621 378.246Z" fill="#455A64"/>
<path d="M325.825 355.76C325.616 355.76 325.128 351.903 323.958 347.235C322.787 342.568 321.449 338.903 321.644 338.82C324.265 344.103 325.692 349.882 325.825 355.76Z" fill="#455A64"/>
<path d="M333.978 345.849C333.178 344.662 332.58 343.354 332.208 341.978C331.611 340.676 331.243 339.283 331.121 337.859C331.921 339.046 332.519 340.354 332.891 341.731C333.49 343.032 333.857 344.425 333.978 345.849Z" fill="#455A64"/>
<path d="M279.012 352.891C279.828 349.45 281.102 346.132 282.803 343.021C282.525 344.771 282.004 346.476 281.256 348.086C280.738 349.783 279.983 351.4 279.012 352.891Z" fill="#455A64"/>
<path d="M361.294 504.113C360.908 503.961 360.55 503.747 360.235 503.481C359.58 503.042 358.66 502.369 357.559 501.491C354.676 499.191 352.012 496.636 349.601 493.858C347.224 491.064 345.027 488.125 343.023 485.059C342.125 483.832 341.341 482.527 340.682 481.16C341.696 482.298 342.627 483.504 343.469 484.771C345.127 487.036 347.385 490.166 350.172 493.392C352.57 496.133 355.155 498.71 357.907 501.106C359.089 502.049 360.22 503.052 361.294 504.113Z" fill="#455A64"/>
<path d="M342.605 439.758C341.27 439.349 339.985 438.797 338.772 438.111C332.784 435.027 327.411 430.902 322.912 425.935C321.941 424.946 321.09 423.85 320.376 422.668C321.402 423.587 322.374 424.564 323.289 425.592C325.625 427.937 328.111 430.133 330.731 432.167C333.368 434.177 336.138 436.012 339.023 437.658C340.264 438.277 341.461 438.979 342.605 439.758Z" fill="#455A64"/>
<path d="M338.396 547.752L347.148 603.362L372.471 602.662C372.471 602.662 374.45 553.751 372.471 547.752C370.492 541.753 364.75 522.343 364.75 522.343" fill="#263238"/>
<path d="M346.605 600.631V602.209C346.605 602.209 319.568 614.166 319.345 619.245H372.68L372.262 599.711C368.301 601.664 363.961 602.757 359.535 602.916C355.108 603.074 350.699 602.295 346.605 600.631Z" fill="#263238"/>
<path d="M299.819 601.427V603.005C299.819 603.005 272.782 614.166 272.573 619.245H326.578L325.477 600.507C321.517 602.462 317.176 603.556 312.75 603.715C308.323 603.873 303.913 603.093 299.819 601.427Z" fill="#263238"/>
<path d="M286.705 508.025C286.705 508.025 299.819 600.631 299.833 602.209C308.141 605.38 317.351 605.38 325.658 602.209L327.261 552.914L286.705 508.025Z" fill="#263238"/>
<path d="M372.708 602.347H346.382L345.741 594.412H372.708V602.347Z" fill="#455A64"/>
<path d="M326.09 602.347H299.778L299.136 594.412H326.09V602.347Z" fill="#455A64"/>
<path d="M325.686 551.116C324.695 550.429 323.784 549.637 322.968 548.755C321.365 547.231 319.219 545.034 316.961 542.522C314.704 540.01 312.78 537.635 311.387 535.878C310.611 534.968 309.929 533.984 309.352 532.941C310.247 533.737 311.064 534.615 311.791 535.563C313.185 537.237 315.219 539.543 317.463 542.056C319.707 544.568 321.797 546.792 323.303 548.411C324.18 549.238 324.978 550.144 325.686 551.116Z" fill="#455A64"/>
<path d="M325.909 195.711C325.909 195.711 334.591 190.426 342.256 195.711C349.922 200.997 364.235 219.872 365.001 229.193C365.768 238.514 359.12 278.021 359.12 278.021C359.12 278.021 330.508 323.83 310.063 321.565C289.618 319.3 246.317 318.819 246.317 318.819L241.94 300.685L297.826 270.76C297.826 270.76 311.08 227.175 312.864 219.872C314.648 212.569 321.937 197.345 325.909 195.711Z" fill="#263238"/>
<path d="M232.185 302.223L236.589 320.796L247.808 318.463L247.25 298.915L232.185 302.223Z" fill="#263238"/>
<path d="M363.858 245.638C363.858 245.638 363.858 245.83 363.858 246.201C363.858 246.572 363.747 247.135 363.649 247.835C363.454 249.29 363.161 251.418 362.785 254.163C361.991 259.654 360.848 267.822 359.398 278.049V278.131C354.985 285.036 350.154 291.674 344.932 298.009C341.878 301.731 338.622 305.287 335.177 308.661C331.46 312.391 327.294 315.659 322.773 318.394C320.378 319.829 317.774 320.894 315.052 321.551L313.993 321.771L312.92 321.881C312.197 321.956 311.468 321.956 310.746 321.881C309.282 321.881 307.889 321.62 306.439 321.496C300.683 320.988 294.746 320.645 288.67 320.343C276.531 319.753 263.807 319.396 250.734 319.163H246.302H246.386L236.63 321.18L236.282 321.249L236.198 320.92C234.712 314.605 233.244 308.414 231.794 302.346L231.711 301.99L232.087 301.921L241.843 300.246H241.745L297.673 270.526L297.548 270.677L308.808 233.544C311.317 225.02 312.557 220.846 312.836 219.817C312.836 219.817 312.836 220.133 312.641 220.737C312.446 221.341 312.265 222.233 311.958 223.4C311.331 225.733 310.369 229.165 309.087 233.572C306.551 242.385 302.788 255.11 298.063 270.787V270.883H297.966L242.108 300.74L232.352 302.443L232.631 302.017C234.061 308.066 235.529 314.253 237.035 320.576L236.617 320.302L246.372 318.298H246.456L250.888 318.366C263.974 318.6 276.684 318.97 288.851 319.561C294.927 319.876 300.865 320.22 306.634 320.755C308.028 320.878 309.533 321.084 310.927 321.139C311.617 321.215 312.313 321.215 313.003 321.139L314.035 321.043L315.052 320.824C317.711 320.195 320.255 319.162 322.592 317.762C327.046 315.052 331.154 311.826 334.828 308.153C338.265 304.8 341.521 301.271 344.584 297.583C349.816 291.286 354.665 284.69 359.106 277.829V277.912C360.639 267.685 361.893 259.613 362.687 254.053C363.12 251.308 363.454 249.194 363.677 247.725C363.789 247.038 363.872 246.503 363.942 246.105L363.858 245.638Z" fill="#455A64"/>
<path d="M241.94 300.685C243.332 303.389 244.308 306.28 244.839 309.265C245.594 312.201 245.913 315.23 245.787 318.257C245.564 318.257 245.188 314.262 244.128 309.416C243.069 304.57 241.731 300.768 241.94 300.685Z" fill="#455A64"/>
<path d="M471.979 213.818C456.119 215.04 440.343 217.717 424.441 217.799C408.539 217.881 392.094 215.163 378.826 206.515C370.297 200.955 363.078 192.98 353.28 190.042C350.381 189.163 346.312 189.342 341.713 190.042C341.713 190.042 324.334 189.52 319.86 190.33C315.387 191.14 306.579 199.13 303.136 199.706C299.694 200.283 287.471 199.034 287.471 199.034C286.682 199.679 286.082 200.521 285.734 201.472C285.386 202.423 285.303 203.449 285.492 204.442C286.106 207.97 284.099 206.68 290.44 209.178C296.781 211.677 309.547 217.319 315.345 209.178C319.08 203.934 322.968 198.196 328.557 195.286C342.006 191.058 356.528 196.659 363.078 207.297C371.774 221.423 398.909 231.623 416.817 236.125C434.726 240.628 428.636 235.755 452.649 231.252C476.661 226.749 478.571 233.503 478.571 233.503L487.936 214.889C482.863 213.187 477.33 213.406 471.979 213.818Z" fill="#720000"/>
</svg>
