<svg width="24" height="24" viewBox="0 0 24 24" fill="none" xmlns="http://www.w3.org/2000/svg">
<path opacity="0.5" d="M19.6642 0L10.7586 6.31481L0 4.33584L6.31484 13.2594L4.33584 24L13.2594 17.6851L24 19.6642L17.6852 10.7586L19.6642 0Z" fill="#808080"/>
<path d="M10.0209 10.7404C10.27 10.3514 10.6289 10.0449 11.052 9.85955C11.4752 9.67422 11.9438 9.61835 12.3987 9.69901C12.8536 9.77968 13.2744 9.99324 13.6081 10.3128C13.9417 10.6323 14.1732 11.0436 14.2735 11.4945C14.3737 11.9455 14.3381 12.4161 14.1712 12.8469C14.0043 13.2777 13.7135 13.6494 13.3356 13.9151C12.9577 14.1808 12.5096 14.3287 12.0477 14.34C11.5859 14.3513 11.131 14.2257 10.7405 13.9788C10.4799 13.814 10.2545 13.5994 10.0771 13.3472C9.89979 13.095 9.77406 12.8102 9.70718 12.5093C9.6403 12.2083 9.63359 11.8971 9.68742 11.5935C9.74125 11.29 9.85458 11.0001 10.0209 10.7404Z" fill="black"/>
<path opacity="0.42" d="M18.4947 1.83496L10.9385 7.23226L1.83508 5.5411L9.8051 8.90541C10.1191 8.58553 10.5166 8.36026 10.9524 8.25529C11.3882 8.15033 11.8446 8.1699 12.2699 8.31174L18.4947 1.83496Z" fill="#F5F5F5"/>
</svg>
