<svg width="36" height="36" viewBox="0 0 36 36" fill="none" xmlns="http://www.w3.org/2000/svg">
<path d="M0 18C0 8.05887 8.05887 0 18 0V0C27.9411 0 36 8.05887 36 18V18C36 27.9411 27.9411 36 18 36V36C8.05887 36 0 27.9411 0 18V18Z" fill="#5E0000"/>
<path fill-rule="evenodd" clip-rule="evenodd" d="M8.14802 17.81C13.3954 15.5238 16.8945 14.0166 18.6452 13.2884C23.644 11.2093 24.6827 10.8481 25.3597 10.8362C25.5086 10.8335 25.8416 10.8704 26.0572 11.0454C26.2393 11.1932 26.2894 11.3928 26.3134 11.5329C26.3374 11.673 26.3673 11.9921 26.3435 12.2415C26.0726 15.0877 24.9005 21.9948 24.3042 25.1826C24.0519 26.5315 23.5551 26.9837 23.0741 27.028C22.0288 27.1242 21.235 26.3372 20.2226 25.6735C18.6384 24.6351 17.7434 23.9886 16.2056 22.9752C14.4284 21.8041 15.5805 21.1604 16.5933 20.1085C16.8584 19.8332 21.4639 15.6441 21.5531 15.264C21.5642 15.2165 21.5746 15.0394 21.4693 14.9458C21.3641 14.8523 21.2088 14.8842 21.0967 14.9097C20.9378 14.9458 18.4069 16.6185 13.5041 19.928C12.7858 20.4213 12.1351 20.6617 11.5521 20.6491C10.9094 20.6352 9.67314 20.2857 8.75409 19.9869C7.62684 19.6205 6.73092 19.4268 6.80893 18.8045C6.84957 18.4804 7.29593 18.1489 8.14802 17.81Z" fill="white"/>
</svg>
